<svg width="212" height="60" viewBox="0 0 212 60" fill="none" xmlns="http://www.w3.org/2000/svg">
<g clip-path="url(#clip0_961_1239)">
<path fill-rule="evenodd" clip-rule="evenodd" d="M82.0304 60C84.2995 54.7637 85.5571 48.9849 85.5571 42.9114C85.5571 19.2121 66.4045 0 42.7786 0C19.1526 0 0 19.2121 0 42.9114C0 48.9849 1.25788 54.7637 3.52656 60H10.0907H74.7093H82.0304ZM7.62723 53.924H77.1725C78.1939 50.5601 78.7429 46.9899 78.7429 43.2911C78.7429 23.1572 62.4716 6.83544 42.4 6.83544C22.3284 6.83544 6.05714 23.1572 6.05714 43.2911C6.05714 46.9899 6.60629 50.5601 7.62723 53.924Z" fill="#FD6E6E"/>
<path fill-rule="evenodd" clip-rule="evenodd" d="M32.1592 32.1616C39.6118 22.5685 40.1901 11.5998 39.3063 7.11292C40.217 8.74381 41.299 10.5712 42.4643 12.5392C50.248 25.6848 61.7476 45.1061 50.7185 54.1669C39.2421 63.5954 17.5192 51.0066 32.1592 32.1616ZM35.2437 35.9704C40.2598 29.4718 42.5595 21.42 41.9646 18.3804L42.1756 18.7606C46.9504 27.3618 56.1447 43.9242 47.7355 50.8773C40.0109 57.2642 25.3898 48.7363 35.2437 35.9704Z" fill="#FD6E6E"/>
<path d="M33.6928 36.4557C39.7339 29.7125 32.256 38.7342 37.8571 38.7342C40.6161 38.7342 41.6687 32.575 43.9143 33.038C52.5313 34.8144 57.931 46.1215 49.777 51.9304C40.4741 58.5579 21.8254 49.7023 33.6928 36.4557Z" fill="#FD6E6E"/>
<path d="M89.3428 14.4304H96.1071L114.707 34.5095L133.308 14.4304H140.071L117.244 38.3544V55.443H112.171V38.3544L89.3428 14.4304Z" fill="#DACF7A"/>
<path d="M136.673 56.2025C134.262 56.2025 132.215 56.0247 130.533 55.6697C128.851 55.3148 127.482 54.7068 126.428 53.845C125.373 52.9832 124.608 51.8229 124.131 50.3654C123.654 48.908 123.414 47.0767 123.414 44.8716C123.414 42.59 123.654 40.7015 124.131 39.2059C124.608 37.7103 125.373 36.5253 126.428 35.6508C127.482 34.7763 128.851 34.1616 130.533 33.8067C132.215 33.4517 134.262 33.2743 136.673 33.2743C138.38 33.2743 139.811 33.363 140.966 33.5405C142.121 33.7179 143.063 33.9397 143.791 34.2058C144.532 34.472 145.09 34.7635 145.467 35.0804C145.856 35.3847 146.138 35.6698 146.315 35.936V26.5823H149.929V55.784H146.315V52.5329C146.315 52.5329 146.013 52.8943 145.41 53.6165C144.883 54.1363 144.299 54.5543 143.66 54.8716C143.019 55.1882 142.121 55.4926 140.966 55.784C139.811 56.063 138.38 56.2025 136.673 56.2025ZM136.673 53.3505C137.877 53.3505 138.951 53.3252 139.893 53.2746C140.834 53.211 141.663 53.0844 142.378 52.8943C143.094 52.7042 143.697 52.4251 144.187 52.0578C144.689 51.6775 145.097 51.1766 145.41 50.5555C145.724 49.9346 145.95 49.1682 146.088 48.2551C146.238 47.3304 146.315 46.2214 146.315 44.9281C146.315 43.5849 146.238 42.4442 146.088 41.5063C145.95 40.5557 145.724 39.7636 145.41 39.1299C145.097 38.4835 144.689 37.9765 144.187 37.609C143.697 37.2414 143.094 36.9626 142.378 36.7724C141.663 36.5696 140.834 36.4429 139.893 36.3922C138.951 36.3415 137.877 36.3162 136.673 36.3162C135.266 36.3162 134.048 36.3605 133.019 36.4492C132.002 36.5379 131.136 36.6964 130.42 36.9245C129.705 37.1527 129.12 37.4695 128.669 37.8751C128.23 38.2807 127.884 38.8003 127.633 39.434C127.395 40.0678 127.231 40.8346 127.143 41.7345C127.068 42.6216 127.03 43.6673 127.03 44.8716C127.03 46.0631 127.068 47.102 127.143 47.9891C127.231 48.8638 127.395 49.6179 127.633 50.2519C127.884 50.8729 128.23 51.3862 128.669 51.7918C129.12 52.1973 129.705 52.514 130.42 52.7418C131.136 52.9702 132.002 53.1286 133.019 53.2175C134.048 53.3064 135.266 53.3505 136.673 53.3505ZM155.956 33.8827H159.572V55.784H155.956V33.8827ZM159.572 30.2325H155.956V26.5823H159.572V30.2325ZM166.803 26.5823H170.419V55.784H166.803V26.5823ZM177.651 26.5823H181.266V55.784H177.651V26.5823ZM199.948 56.2025C197.537 56.2025 195.491 56.0377 193.808 55.708C192.126 55.3654 190.758 54.7827 189.704 53.9592C188.648 53.1351 187.882 52.0325 187.405 50.6509C186.929 49.2694 186.69 47.5328 186.69 45.4414C186.69 43.0463 186.929 41.069 187.405 39.5102C187.882 37.9385 188.648 36.6901 189.704 35.7649C190.758 34.8396 192.126 34.1932 193.808 33.8256C195.491 33.4581 197.537 33.2743 199.948 33.2743C201.668 33.2743 203.155 33.4011 204.41 33.6545C205.679 33.908 206.758 34.2756 207.649 34.7572C208.554 35.2388 209.282 35.8219 209.835 36.5063C210.399 37.1907 210.839 37.9131 211.153 38.6736C211.478 39.4214 211.699 40.3023 211.812 41.3162C211.937 42.3301 212 43.4012 212 44.529L211.699 45.7457H190.306C190.306 47.4187 190.469 48.7944 190.795 49.8716C191.122 50.9358 191.662 51.7152 192.415 52.2097C193.168 52.7041 194.16 53.0209 195.39 53.1604C196.62 53.2869 198.14 53.3505 199.948 53.3505C201.604 53.3505 202.973 53.3064 204.053 53.2175C205.146 53.1163 206.012 52.9319 206.652 52.6659C207.292 52.3998 207.737 52.0325 207.989 51.5634C208.252 51.0819 208.385 50.4608 208.385 49.7003H212C212 50.8787 211.793 51.8866 211.378 52.723C210.976 53.5471 210.305 54.2187 209.364 54.7385C208.423 55.2453 207.179 55.6126 205.635 55.8411C204.103 56.0818 202.208 56.2025 199.948 56.2025ZM199.948 36.3162C198.742 36.3162 197.663 36.3415 196.709 36.3922C195.767 36.4429 194.939 36.557 194.223 36.7344C193.52 36.8992 192.917 37.1464 192.415 37.4758C191.912 37.7927 191.504 38.173 191.191 38.6165C190.889 39.0475 190.664 39.6622 190.512 40.4607C190.375 41.2465 190.306 42.1971 190.306 43.3124H208.385C208.385 41.8295 208.227 40.6698 207.914 39.8333C207.6 38.9841 207.104 38.2871 206.426 37.742C205.748 37.197 204.875 36.8231 203.808 36.6204C202.741 36.4176 201.455 36.3162 199.948 36.3162Z" fill="#DACF7A"/>
</g>
<defs>
<clipPath id="clip0_961_1239">
<rect width="212" height="60" fill="white"/>
</clipPath>
</defs>
</svg>
