<svg width="113" height="79" viewBox="0 0 113 79" fill="none" xmlns="http://www.w3.org/2000/svg">
<path fill-rule="evenodd" clip-rule="evenodd" d="M108.342 79C111.339 72.1056 113 64.4968 113 56.5C113 25.2959 87.7041 0 56.5 0C25.2959 0 0 25.2959 0 56.5C0 64.4968 1.66135 72.1056 4.65772 79H13.3273H98.6727H108.342ZM10.0737 71H42.0417C35.2043 65.3524 32.6882 54.9043 42.4745 42.3461C52.3175 29.7152 53.0813 15.2732 51.9141 9.36539C53.1168 11.5127 54.5459 13.9188 56.085 16.5101C66.2743 33.6651 81.2851 58.9378 67.3665 71H101.926C103.275 66.5708 104 61.8701 104 57C104 30.4903 82.5097 9 56 9C29.4903 9 8 30.4903 8 57C8 61.8701 8.72529 66.5708 10.0737 71ZM47.4887 46.1001C53.4595 37.7898 56.1725 28.0085 55.425 24.201L55.7037 24.7015C59.0356 30.685 63.997 39.5946 66.2978 48.0182C64.0718 45.8118 61.2043 44.1585 58 43.5C56.5502 43.202 55.4769 44.9875 54.3328 46.8908C53.1364 48.881 51.8627 51 50 51C46.2541 51 46.9373 47.9543 47.4887 46.1001Z" fill="#FF6F6F"/>
</svg>
